<svg width="16" height="16" viewBox="0 0 16 16" fill="none" xmlns="http://www.w3.org/2000/svg">
<path d="M11.6 14.6667C8.8782 14.6631 6.26889 13.5803 4.34428 11.6557C2.41967 9.73112 1.33687 7.1218 1.33334 4.39999C1.33334 3.58666 1.65644 2.80665 2.23155 2.23153C2.80666 1.65642 3.58668 1.33333 4.40001 1.33333C4.57224 1.33202 4.74418 1.34765 4.91334 1.37999C5.07688 1.4042 5.23765 1.44439 5.39334 1.49999C5.50284 1.53841 5.60042 1.60475 5.67642 1.69244C5.75242 1.78014 5.80421 1.88615 5.82668 1.99999L6.74001 5.99999C6.76463 6.10857 6.76166 6.22158 6.73139 6.32872C6.70111 6.43585 6.64448 6.5337 6.56668 6.61333C6.48001 6.70666 6.47334 6.71333 5.65334 7.13999C6.31001 8.58057 7.46214 9.73743 8.90001 10.4C9.33334 9.57333 9.34001 9.56666 9.43334 9.47999C9.51297 9.40219 9.61082 9.34556 9.71795 9.31528C9.82509 9.28501 9.9381 9.28204 10.0467 9.30666L14.0467 10.22C14.1569 10.2456 14.2588 10.2988 14.3427 10.3746C14.4267 10.4504 14.49 10.5463 14.5267 10.6533C14.5829 10.8116 14.6253 10.9744 14.6533 11.14C14.6802 11.3075 14.6936 11.477 14.6933 11.6467C14.6811 12.4565 14.3489 13.2286 13.7693 13.7944C13.1898 14.3602 12.4099 14.6738 11.6 14.6667ZM4.40001 2.66666C3.94084 2.66842 3.50098 2.8516 3.1763 3.17628C2.85162 3.50097 2.66843 3.94083 2.66668 4.39999C2.66844 6.76872 3.6102 9.03992 5.28514 10.7149C6.96008 12.3898 9.23128 13.3316 11.6 13.3333C12.0592 13.3316 12.499 13.1484 12.8237 12.8237C13.1484 12.499 13.3316 12.0592 13.3333 11.6V11.38L10.24 10.6667L10.0467 11.0333C9.74668 11.6133 9.52668 12.0333 8.96668 11.8067C7.86193 11.4112 6.85914 10.7747 6.03117 9.94325C5.20319 9.11181 4.57083 8.10638 4.18001 6.99999C3.94001 6.47999 4.39334 6.23999 4.96668 5.93999L5.33334 5.75999L4.62001 2.66666H4.40001Z" fill="#969696"/>
</svg>
